<svg xmlns="http://www.w3.org/2000/svg" width="89" height="89" viewBox="0 0 89 89">
    <g fill="none" fill-rule="evenodd">
        <path fill="#A2B6BD" d="M70.475 76.242L21.754 88.36c-2.003.498-4.03-.721-4.527-2.723L.285 17.513c-.498-2.003.721-4.03 2.723-4.527L51.73.87c2.002-.498 4.028.721 4.526 2.723l16.942 68.123c.498 2.002-.721 4.029-2.723 4.526"/>
        <path fill="#FFF" d="M64.224 70.933L25.47 80.571c-1.522.378-3.065-.542-3.454-2.062L5.604 15.18 49.897 4.165 66.3 67.455c.393 1.534-.539 3.096-2.076 3.478"/>
        <path fill="#E5EEEC" d="M47.725 15.687l-19.936 4.865c-.603.15-1.214-.209-1.376-.808-.168-.617.205-1.25.825-1.405l19.936-4.865c.603-.15 1.213.21 1.375.808.168.617-.204 1.25-.824 1.405M49.845 21.898L29.91 26.764c-.602.15-1.213-.209-1.376-.808-.167-.617.206-1.25.826-1.405l19.936-4.865c.602-.15 1.213.21 1.375.808.168.616-.205 1.25-.825 1.404M44.979 29.998L32.004 33.04c-.603.15-1.213-.209-1.376-.808-.168-.617.205-1.25.825-1.405l12.975-3.043c.603-.15 1.213.21 1.376.808.168.617-.205 1.25-.825 1.405M50.98 51l-26.59 6.626c-.602.15-1.214-.21-1.376-.808-.167-.617.206-1.25.826-1.405l26.59-6.625c.602-.15 1.212.21 1.374.808.168.617-.204 1.25-.824 1.405M54.565 44.355L22.85 52.127c-.602.15-1.213-.208-1.375-.808-.168-.616.205-1.25.825-1.404l31.713-7.772c.603-.15 1.213.21 1.376.808.168.616-.205 1.25-.825 1.404M54.222 64.075L27.632 70.7c-.602.15-1.213-.21-1.375-.808-.168-.617.205-1.25.825-1.405l26.59-6.624c.602-.15 1.213.21 1.375.808.168.616-.205 1.25-.825 1.404M57.807 57.43l-31.713 7.772c-.603.15-1.213-.209-1.376-.808-.168-.616.205-1.25.825-1.404l31.714-7.773c.602-.15 1.213.21 1.375.808.168.617-.205 1.25-.825 1.405"/>
        <path fill="#A2B6BD" d="M16.95 13.736l-.82-3.298 22.104-5.497.82 3.297c.104.417-.15.838-.567.942l-20.596 5.122c-.417.104-.838-.15-.941-.566m23.528-5.292l-1.613-6.423L14.19 8.157l1.547 6.188c.261 1.045 1.322 1.678 2.365 1.411l21.243-5.425c.834-.207 1.341-1.053 1.132-1.887"/>
        <path fill="#CAD8D5" d="M60.543 55.72l-2.361 9.644c-.174.71.514 1.327 1.201 1.077l9.42-3.434-8.26-7.287z"/>
        <path fill="#FFB74C" d="M62.457 62.025c-2.562-2.19-2.864-6.044-.672-8.606l15.936-18.64c2.19-2.563 6.044-2.864 8.606-.674 2.562 2.192 2.864 6.044.673 8.607l-15.936 18.64c-2.19 2.563-6.044 2.864-8.607.673"/>
        <path fill="#E5EEEC" d="M13.282 45.484L13.078 44.681 46.135 36.507 46.338 37.309z"/>
        <path fill="#09D79D" d="M22.889 20.56l3.415 13.146c.169.648-.22 1.31-.867 1.479l-6.42 1.718c-.654.171-1.322-.225-1.484-.88L14.228 22.73c-.163-.656.24-1.318.897-1.473l6.31-1.572c.642-.152 1.288.237 1.454.875"/>
    </g>
</svg>
