<svg xmlns="http://www.w3.org/2000/svg" width="87" height="96" viewBox="0 0 87 96">
    <g fill="none" fill-rule="evenodd">
        <path fill="#E5EEEC" d="M5.105 86.769h55.72c2.34 0 4.236-1.896 4.236-4.236V19.024L48.05.706H5.106C2.765.706.869 2.603.869 4.942v77.591c0 2.34 1.897 4.236 4.236 4.236"/>
        <path fill="#FFF" d="M53.246 41.351h-27.6c-1.096 0-1.984-.888-1.984-1.983 0-1.096.888-1.984 1.983-1.984h27.601c1.095 0 1.983.888 1.983 1.984 0 1.095-.888 1.983-1.983 1.983M53.246 51.623h-27.6c-1.096 0-1.984-.888-1.984-1.983 0-1.096.888-1.984 1.983-1.984h27.601c1.095 0 1.983.888 1.983 1.984 0 1.095-.888 1.983-1.983 1.983M53.246 61.895h-27.6c-1.096 0-1.984-.888-1.984-1.983 0-1.096.888-1.984 1.983-1.984h27.601c1.095 0 1.983.888 1.983 1.984 0 1.095-.888 1.983-1.983 1.983M45.75 72.167H25.646c-1.096 0-1.984-.888-1.984-1.983 0-1.096.888-1.984 1.984-1.984H45.75c1.095 0 1.983.888 1.983 1.984 0 1.095-.888 1.983-1.983 1.983"/>
        <path fill="#CAD8D5" d="M48.052 19.024L48.052 0.706 65.061 19.024z"/>
        <path fill="#FFB74C" d="M14.493 24.405h.254c3.577 0 6.477-2.9 6.477-6.477 0-3.576-2.9-6.476-6.477-6.476h-.254c-3.577 0-6.477 2.9-6.477 6.476 0 3.577 2.9 6.477 6.477 6.477"/>
        <path fill="#FFF" d="M14.62 68.134c-1.13 0-2.05.92-2.05 2.05s.92 2.05 2.05 2.05 2.05-.92 2.05-2.05-.92-2.05-2.05-2.05m0 5.091c-1.676 0-3.041-1.364-3.041-3.04 0-1.678 1.364-3.043 3.041-3.043 1.677 0 3.042 1.365 3.042 3.042 0 1.677-1.365 3.041-3.041 3.041M14.62 57.862c-1.13 0-2.05.92-2.05 2.05s.92 2.05 2.05 2.05 2.05-.92 2.05-2.05-.92-2.05-2.05-2.05m0 5.091c-1.676 0-3.041-1.364-3.041-3.041 0-1.677 1.364-3.042 3.041-3.042 1.677 0 3.042 1.365 3.042 3.042 0 1.677-1.365 3.041-3.041 3.041M14.62 47.59c-1.13 0-2.05.92-2.05 2.05s.92 2.05 2.05 2.05 2.05-.92 2.05-2.05-.92-2.05-2.05-2.05m0 5.091c-1.676 0-3.041-1.364-3.041-3.041 0-1.677 1.364-3.042 3.041-3.042 1.677 0 3.042 1.365 3.042 3.042 0 1.677-1.365 3.041-3.041 3.041M14.62 37.318c-1.13 0-2.05.92-2.05 2.05s.92 2.05 2.05 2.05 2.05-.92 2.05-2.05-.92-2.05-2.05-2.05m0 5.091c-1.676 0-3.041-1.364-3.041-3.041 0-1.677 1.364-3.042 3.041-3.042 1.677 0 3.042 1.365 3.042 3.042 0 1.677-1.365 3.041-3.041 3.041"/>
        <path fill="#09D79D" d="M86.112 63.137H44.01v-7.959c0-1.257 1.019-2.276 2.276-2.276h37.55c1.257 0 2.276 1.02 2.276 2.276v7.96z"/>
        <path fill="#56A856" d="M53.683 57.455c0 .943-.764 1.707-1.707 1.707-.943 0-1.707-.764-1.707-1.707 0-.943.764-1.707 1.707-1.707.943 0 1.707.764 1.707 1.707"/>
        <path fill="#F6F6F6" d="M51.976 58.545c-.47 0-.853-.382-.853-.853V51.74c0-.472.382-.854.853-.854s.853.382.853.854v5.952c0 .471-.382.853-.853.853"/>
        <path fill="#56A856" d="M79.859 57.455c0 .943-.764 1.707-1.707 1.707-.943 0-1.707-.764-1.707-1.707 0-.943.764-1.707 1.707-1.707.943 0 1.707.764 1.707 1.707"/>
        <path fill="#09D79D" d="M83.836 95.564h-37.55c-1.257 0-2.276-1.019-2.276-2.276v-30.15h42.102v30.15c0 1.257-1.02 2.276-2.276 2.276"/>
        <path fill="#FFF" d="M84.11 91.603h-38.1c-.6 0-1.087-.486-1.087-1.087V63.136h40.276v27.379c0 .6-.487 1.087-1.088 1.087"/>
        <path fill="#F6F6F6" d="M78.152 58.545c-.471 0-.853-.382-.853-.853V51.74c0-.472.382-.854.853-.854s.853.382.853.854v5.952c0 .471-.382.853-.853.853"/>
        <path fill="#09D79D" d="M58.281 73.779L55.782 74.394 55.127 71.813 59.243 70.584 61.394 70.584 61.394 85.023 58.281 85.023zM71.41 73.41L64.672 73.41 64.672 70.686 74.994 70.686 74.994 73.062 68.563 85.022 65 85.022z"/>
    </g>
</svg>
