<svg xmlns="http://www.w3.org/2000/svg" width="95" height="50" viewBox="0 0 95 50">
    <g fill="none" fill-rule="evenodd">
        <path fill="#09D79D" d="M65.615 7.929l13.806 1.28c3.048.282 5.671 2.273 6.764 5.131l2.339 6.115c.477 1.25 1.26 2.361 2.276 3.232 1.78 1.526 2.805 3.755 2.805 6.1v6.008h-27.99V7.93zM92.164 41.145H65.615v-5.35h27.99v3.908c0 .796-.645 1.442-1.441 1.442"/>
        <path fill="#FFF" d="M70.01 11.468v9.673c0 .398.323.72.721.72h15.442c.182 0 .303-.19.224-.355l-2.504-6.329c-.948-1.98-2.854-3.327-5.036-3.56l-8.05-.866c-.425-.045-.797.288-.797.717"/>
        <path fill="#09D79D" d="M92.237 35.795L94.07 35.795 94.07 32.189 92.237 32.189zM79.101 31.064c-5.558 0-10.08 4.522-10.08 10.081h6.76c0-1.831 1.49-3.32 3.32-3.32 1.831 0 3.32 1.489 3.32 3.32h6.76c0-5.56-4.522-10.08-10.08-10.08"/>
        <path fill="#CAD8D5" d="M65.074 41.145H1.577c-.796 0-1.441-.646-1.441-1.442V1.533C.136.737.78.092 1.577.092h62.055c.796 0 1.442.645 1.442 1.441v39.612z"/>
        <path fill="#B5C6C2" d="M65.074 41.145H2.624c-1.375 0-2.488-1.114-2.488-2.488v-2.862h64.938v5.35z"/>
        <path fill="#E5EEEC" d="M5.378 5.068L58.431 5.068 58.431 4.322 5.378 4.322z"/>
        <path fill="#B5C6C2" d="M20.508 31.064c-5.558 0-10.08 4.522-10.08 10.081h6.76c0-1.831 1.49-3.32 3.32-3.32 1.831 0 3.32 1.489 3.32 3.32h6.761c0-5.56-4.522-10.08-10.08-10.08"/>
        <path fill="#CAD8D5" d="M20.473 49.32c-4.479 0-8.122-3.643-8.122-8.122 0-4.477 3.643-8.12 8.122-8.12 4.478 0 8.121 3.643 8.121 8.12 0 4.479-3.643 8.122-8.121 8.122"/>
        <path fill="#FFB74C" d="M20.473 35.878c2.938 0 5.32 2.382 5.32 5.32 0 2.94-2.382 5.322-5.32 5.322-2.939 0-5.321-2.382-5.321-5.322 0-2.938 2.382-5.32 5.32-5.32"/>
        <path fill="#FFF" d="M20.473 38.524c-1.475 0-2.675 1.2-2.675 2.674 0 1.476 1.2 2.676 2.675 2.676 1.475 0 2.674-1.2 2.674-2.676 0-1.475-1.2-2.674-2.674-2.674"/>
        <path fill="#CAD8D5" d="M79.101 49.32c-4.478 0-8.121-3.643-8.121-8.122 0-4.477 3.643-8.12 8.121-8.12 4.479 0 8.122 3.643 8.122 8.12-.001 4.479-3.643 8.122-8.122 8.122"/>
        <path fill="#FFB74C" d="M79.101 35.878c2.939 0 5.32 2.382 5.32 5.32 0 2.94-2.381 5.322-5.32 5.322-2.938 0-5.32-2.382-5.32-5.322 0-2.938 2.382-5.32 5.32-5.32"/>
        <path fill="#FFF" d="M79.101 38.524c-1.475 0-2.674 1.2-2.674 2.674 0 1.476 1.199 2.676 2.674 2.676 1.475 0 2.675-1.2 2.675-2.676 0-1.475-1.2-2.674-2.675-2.674"/>
        <path fill="#B5C6C2" d="M63.632.092h-.145V36.22h1.587V1.533c0-.796-.646-1.441-1.442-1.441"/>
    </g>
</svg>
