<svg xmlns="http://www.w3.org/2000/svg" width="116" height="96" viewBox="0 0 116 96">
    <g fill="none">
        <g>
            <path fill="#22B88D" d="M47.1 54.24c2.07-2.19 6.99-17.43 8.82-23.28.36-1.14-.84-2.16-1.92-1.62-1.83.93-4.41 3.12-6.9 8.16-1.65 3.6-3.03 5.31-3.9 6.12-.45.39-1.14.18-1.26-.42-.48-2.34-1.5-7.89-1.32-11.22 1.65-12.45 1.83-25.59 1.83-26.16.03-1.5-1.17-2.7-2.67-2.73-1.5-.03-2.7 1.17-2.73 2.67 0 .12-1.44 12.66-3 24.39-.03.33-.3.57-.63.6-.18 0-.39.03-.57.06-.36.03-.66-.21-.72-.54l-5.97-27.6c-.3-1.62-1.89-2.7-3.51-2.37-1.62.3-2.7 1.89-2.37 3.51l4.59 28.14c.06.33-.12.66-.45.78-.36.12-.75-.03-.87-.39L14.31 8.52c-.51-1.41-2.04-2.13-3.45-1.65-1.41.51-2.13 2.04-1.65 3.45l8.16 24.63c.27.78.03 1.68-.6 2.22-.09.06-.15.15-.24.21-.57.51-1.5.42-1.95-.21L4.47 22.77c-.75-1.08-2.25-1.35-3.33-.57-1.08.75-1.35 2.25-.57 3.33l10.89 17.79c.21.33.36.72.48 1.11 3.72 12.96 6.93 20.25 8.82 23.61 1.68 3 2.31 18.66 2.43 22.26l-.09.03c-1.14.33-1.8 1.5-1.5 2.64l.24.84c.33 1.14 1.5 1.8 2.64 1.5l24.27-6.72c1.14-.33 1.8-1.5 1.5-2.64l-.24-.84c-.33-1.14-1.5-1.8-2.64-1.5l-.3.09c-.75-1.92-5.04-13.17-4.8-15.66.21-2.79 2.25-11.1 4.83-13.8z" transform="translate(60)"/>
            <path fill="#69C9D3" d="M32.25 30.51c-.06-.09-.12-.18-.15-.27l-5.97-27.6c-.09-.42-.24-.78-.45-1.11.84 5.49 4.08 26.28 6.57 28.98z" opacity=".35" transform="translate(60)"/>
            <g opacity=".35">
                <path fill="#69C9D3" d="M11.04 15.3c-.15-.09-.3-.21-.42-.39L.51.51C.39.33.24.18.09.06 2.1 3.57 8.07 13.8 11.04 15.3z" transform="translate(60) translate(3.9 22.2)"/>
                <path fill="#DB5734" d="M11.1 15.3h-.03.03z" transform="translate(60) translate(3.9 22.2)"/>
            </g>
            <path fill="#69C9D3" d="M42.24 43.65c-.15-.12-.27-.27-.3-.48-.39-1.95-1.17-6.09-1.32-9.36l-.06.03c0 .03-2.04 7.98 1.68 9.81zM23.58 32.43c-.03-.06-.06-.09-.09-.15L14.25 8.46c-.27-.78-.87-1.35-1.59-1.62 1.74 5.28 7.83 23.04 10.92 25.59zM37.05 5.73c0 .12-1.44 12.66-3 24.39 0 .09-.03.15-.06.21 2.49-3.72 3.27-20.01 3.48-25.98-.27.42-.42.9-.42 1.38z" opacity=".35" transform="translate(60)"/>
            <path fill="#FFF" d="M18.66 55.05s3 5.88 8.34 3.87c1.95-.72.48-2.7-1.29-2.64-1.77.06-4.71-.54-6.12-2.19-1.05-1.32-1.47.09-.93.96zM20.7 53.76s-.93-.09-.93-.75c.03-.66 1.74-.42 2.1 0 .36.42-.45 1.02-1.17.75z" opacity=".2" transform="translate(60)"/>
            <g fill="#FFF" opacity=".2">
                <path d="M9.45 6.45c.15.54.27 1.05.36 1.56.09.51.12 1.05.21 1.56s.21 1.02.36 1.53c.12.51.33.99.51 1.5l-.06.03c-.27-.45-.54-.93-.75-1.44-.21-.51-.39-1.02-.54-1.53-.15-.51-.33-1.05-.33-1.59-.03-.54 0-1.08.18-1.62h.06zM20.85.12c.09.54.15 1.08.18 1.59.06.51 0 1.05.03 1.56s.09 1.05.18 1.56c.06.51.21 1.02.36 1.56l-.06.03c-.24-.48-.42-.99-.6-1.5-.15-.51-.27-1.05-.36-1.59-.09-.54-.21-1.08-.15-1.62.03-.54.12-1.08.36-1.59h.06zM47.43 36.09c.18-.66.42-1.29.69-1.92.27-.63.57-1.23.9-1.83.36-.6.69-1.2 1.17-1.71.48-.48 1.08-.93 1.74-1.14l.03.06c-.48.51-.9.99-1.32 1.5-.09.12-.21.27-.3.39s-.21.27-.3.39c-.21.24-.42.51-.6.78-.39.54-.72 1.11-1.05 1.71-.33.6-.63 1.2-.9 1.8l-.06-.03zM.39 21.66c-.06.3-.06.6-.03.87s.06.57.15.84.24.54.39.78c.09.12.18.24.24.36l.3.36-.03.03-.33-.3c-.09-.12-.21-.21-.3-.33-.18-.24-.36-.51-.48-.78-.12-.3-.24-.6-.24-.93 0-.33.09-.66.33-.9zM40.35 2.55c.21.27.33.6.39.93.09.33.09.66.09.99 0 .33-.03.66-.09.99-.06.33-.12.66-.21.96h-.03c.03-.33.09-.66.09-.99.03-.33 0-.66 0-.96-.03-.33-.09-.63-.12-.96l-.12-.96z" transform="translate(60) translate(.9 1.8)"/>
            </g>
            <path fill="#FFF" d="M23.1 90.24l-.09.03c-1.14.33-1.8 1.5-1.5 2.64l.24.84c.33 1.14 1.5 1.8 2.64 1.5l24.27-6.72c1.14-.33 1.8-1.5 1.5-2.64l-.24-.84c-.33-1.14-1.5-1.8-2.64-1.5l-.3.09c-.75-1.92-5.04-13.17-4.8-15.66.27-2.73 2.31-11.04 4.89-13.74.24-.24.51-.69.81-1.23-2.43-.6-5.16-2.19-8.46-1.47-5.19 1.11-6.21 10.29-14.31 9.63-4.5-.39-8.46-5.31-11.1-9.63 2.79 8.58 5.13 13.77 6.63 16.47 1.71 2.97 2.34 18.63 2.46 22.23z" opacity=".2" transform="translate(60)"/>
        </g>
        <path fill="#22B88D" d="M8.97 54.24C6.9 52.05 1.98 36.81.15 30.96c-.36-1.14.84-2.16 1.92-1.62 1.83.93 4.41 3.12 6.9 8.16 1.65 3.6 3.03 5.31 3.9 6.12.45.39 1.14.18 1.26-.42.48-2.34 1.5-7.89 1.32-11.22-1.65-12.45-1.83-25.59-1.83-26.16-.03-1.5 1.17-2.7 2.67-2.73 1.5-.03 2.7 1.17 2.73 2.67 0 .12 1.44 12.66 3 24.39.03.33.3.57.63.6.18 0 .39.03.57.06.36.03.66-.21.72-.54l5.97-27.6c.3-1.62 1.89-2.7 3.51-2.37 1.62.3 2.7 1.89 2.37 3.51L31.2 31.95c-.06.33.12.66.45.78.36.12.75-.03.87-.39l9.24-23.82c.51-1.41 2.04-2.13 3.45-1.65 1.41.51 2.13 2.04 1.65 3.45L38.7 34.95c-.27.78-.03 1.68.6 2.22.09.06.15.15.24.21.57.51 1.5.42 1.95-.21l10.11-14.4c.75-1.08 2.25-1.35 3.33-.57 1.08.75 1.35 2.25.57 3.33L44.61 43.32c-.21.33-.36.72-.48 1.11-3.72 12.96-6.93 20.25-8.82 23.61-1.68 3-2.31 18.66-2.43 22.26l.09.03c1.14.33 1.8 1.5 1.5 2.64l-.24.84c-.33 1.14-1.5 1.8-2.64 1.5L7.32 88.59c-1.14-.33-1.8-1.5-1.5-2.64l.24-.84c.33-1.14 1.5-1.8 2.64-1.5l.3.09c.75-1.92 5.04-13.17 4.8-15.66-.21-2.79-2.25-11.1-4.83-13.8z"/>
        <path fill="#69C9D3" d="M23.82 30.51c.06-.09.12-.18.15-.27l5.97-27.6c.09-.42.24-.78.45-1.11-.84 5.49-4.11 26.28-6.57 28.98z" opacity=".35"/>
        <g opacity=".35">
            <path fill="#69C9D3" d="M.3 15.3c.15-.09.3-.21.42-.39L10.83.51c.12-.18.27-.33.42-.45C9.27 3.57 3.27 13.8.3 15.3z" transform="translate(40.8 22.2)"/>
            <path fill="#DB5734" d="M.27 15.3H.3.27z" transform="translate(40.8 22.2)"/>
        </g>
        <path fill="#69C9D3" d="M13.8 43.65c.15-.12.27-.27.3-.48.39-1.95 1.17-6.09 1.32-9.36l.06.03c.03.03 2.04 7.98-1.68 9.81zM32.49 32.43c.03-.06.06-.09.09-.15l9.24-23.82c.27-.78.87-1.35 1.59-1.62-1.77 5.28-7.86 23.04-10.92 25.59z" opacity=".35"/>
        <path fill="#69C9D3" d="M18.99 5.73c0 .12 1.44 12.66 3 24.39 0 .09.03.15.06.21-2.49-3.72-3.27-20.01-3.48-25.98.27.42.42.9.42 1.38z"/>
        <path fill="#FFF" d="M37.41 55.05s-3 5.88-8.34 3.87c-1.95-.72-.48-2.7 1.29-2.64 1.77.06 4.71-.54 6.12-2.19 1.05-1.32 1.47.09.93.96zM35.34 53.76s.93-.09.93-.75c-.03-.66-1.74-.42-2.1 0-.36.42.45 1.02 1.17.75z" opacity=".2"/>
        <g fill="#FFF" opacity=".2">
            <path d="M42.72 6.45c-.15.54-.27 1.05-.36 1.56-.09.51-.12 1.05-.21 1.56s-.21 1.02-.36 1.53c-.12.51-.33.99-.51 1.5l.06.03c.27-.45.54-.93.75-1.44.21-.51.39-1.02.54-1.53.15-.51.33-1.05.33-1.59.03-.54 0-1.08-.18-1.62h-.06zM31.32.12c-.09.54-.15 1.08-.18 1.59-.06.51 0 1.05-.03 1.56s-.09 1.05-.18 1.56c-.06.51-.21 1.02-.36 1.56l.06.03c.24-.48.42-.99.6-1.5.15-.51.27-1.05.36-1.59.09-.54.21-1.08.15-1.62-.03-.54-.12-1.08-.36-1.59h-.06zM4.71 36.09c-.18-.66-.42-1.29-.69-1.92-.27-.63-.57-1.23-.9-1.83-.36-.6-.69-1.2-1.17-1.71-.48-.48-1.08-.93-1.74-1.14l-.03.06c.48.51.9.99 1.32 1.5.09.12.21.27.3.39s.21.27.3.39c.21.24.42.51.6.78.39.54.72 1.11 1.05 1.71.33.6.63 1.2.9 1.8l.06-.03zM51.75 21.66c.06.3.06.6.03.87s-.06.57-.15.84-.24.54-.39.78c-.09.12-.18.24-.24.36l-.3.36.03.03.33-.3c.09-.12.21-.21.3-.33.18-.24.36-.51.48-.78.12-.3.24-.6.24-.93 0-.33-.09-.66-.33-.9zM11.82 2.55c-.21.27-.33.6-.39.93-.09.33-.09.66-.09.99 0 .33.03.66.09.99.06.33.12.66.21.96h.03c-.03-.33-.09-.66-.09-.99-.03-.33 0-.66 0-.96.03-.33.09-.63.12-.96l.12-.96z" transform="translate(3 1.8)"/>
        </g>
        <path fill="#FFF" d="M32.94 90.24l.09.03c1.14.33 1.8 1.5 1.5 2.64l-.24.84c-.33 1.14-1.5 1.8-2.64 1.5L7.38 88.53c-1.14-.33-1.8-1.5-1.5-2.64l.24-.84c.33-1.14 1.5-1.8 2.64-1.5l.3.09c.75-1.92 5.04-13.17 4.8-15.66-.27-2.73-2.31-11.04-4.89-13.74-.24-.24-.51-.69-.81-1.23 2.43-.6 5.16-2.19 8.46-1.47 5.19 1.11 6.21 10.29 14.31 9.63 4.5-.39 8.46-5.31 11.1-9.63-2.79 8.58-5.13 13.77-6.63 16.47-1.71 2.97-2.34 18.63-2.46 22.23z" opacity=".2"/>
    </g>
</svg>
