<svg xmlns="http://www.w3.org/2000/svg" xmlns:xlink="http://www.w3.org/1999/xlink" width="133" height="89" viewBox="0 0 133 89">
    <defs>
        <path id="prefix__a" d="M0 0.127L19.966 0.127 19.966 30.691 0 30.691z"/>
        <path id="prefix__c" d="M0.089 0.127L20.056 0.127 20.056 30.691 0.089 30.691z"/>
    </defs>
    <g fill="none" fill-rule="evenodd">
        <path fill="#C8C8C8" d="M.158 5.92C-.786 12.21 2.83 29.03 3.773 33.904c.5 2.587 6.289 14.777 6.131 13.205-.157-1.572-2.358-8.174-2.987-10.847-.628-2.673-2.043-13.206-2.672-17.45-.63-4.245-2.28-13.6 0-16.665C3.065 1.676.702 2.291.158 5.92"/>
        <g transform="translate(0 .223)">
            <mask id="prefix__b" fill="#fff">
                <use xlink:href="#prefix__a"/>
            </mask>
            <path fill="#E1E1E1" d="M19.337 19.752S13.048 1.106 6.76.195C4.513-.131 2.813.76 1.808 1.885 0 3.907 0 7.034 0 7.034s.537-1.644 1.533-2.87c1.42-1.748 3.508-3.16 5.542-1.732 3.459 2.43 7.86 10.791 8.803 14.742.943 3.95 4.088 13.517 4.088 13.517l-.629-10.939z" mask="url(#prefix__b)"/>
        </g>
        <path fill="#E1E1E1" d="M3.616 33.157s3.459 7.428 5.11 9.55c1.65 2.123 4.715 6.603 6.602 8.725 2.108 2.372 3.854 4.62 5.896 5.896l-.629 4.399s-6.446-5.66-9.59-10.53c-2.234-3.461-4.389-7.48-5.956-12.11-.639-1.887-1.433-5.93-1.433-5.93"/>
        <path fill="#C8C8C8" d="M131.898 5.92c.943 6.289-2.672 23.11-3.615 27.984-.501 2.587-6.288 14.777-6.132 13.205.157-1.572 2.359-8.174 2.987-10.847.63-2.673 2.044-13.206 2.673-17.45.63-4.245 2.28-13.6 0-16.665 1.179-.471 3.543.144 4.087 3.773"/>
        <g transform="translate(112 .223)">
            <mask id="prefix__d" fill="#fff">
                <use xlink:href="#prefix__c"/>
            </mask>
            <path fill="#E1E1E1" d="M.718 19.752S7.008 1.106 13.295.195c2.248-.326 3.948.565 4.952 1.69 1.809 2.022 1.809 5.149 1.809 5.149s-.537-1.644-1.533-2.87c-1.42-1.748-3.508-3.16-5.542-1.732-3.458 2.43-7.86 10.791-8.803 14.742C3.235 21.124.089 30.69.089 30.69l.63-10.939z" mask="url(#prefix__d)"/>
        </g>
        <path fill="#E1E1E1" d="M128.44 33.157s-3.459 7.428-5.11 9.55c-1.65 2.123-4.715 6.603-6.602 8.725-2.107 2.372-3.854 4.62-5.895 5.896l.628 4.399s6.446-5.66 9.59-10.53c2.234-3.461 4.388-7.48 5.956-12.11.639-1.887 1.433-5.93 1.433-5.93"/>
        <path fill="#3ADFB0" d="M115.313 15.193s-11.005-3.772-19.809-5.66c-8.803-1.886-7.232-.628-13.206-2.515-5.802-1.832-13.976-4.554-16.17-4.708-.007-.003-.014-.008-.02-.008l-.08.003-.08-.003c-.006 0-.013.005-.02.008-2.194.154-10.368 2.876-16.17 4.708-5.975 1.887-4.402.63-13.206 2.516-8.804 1.887-19.809 5.66-19.809 5.66s1.258 11.633 2.516 22.952c1.257 11.319-1.887 24.524-1.887 24.524s5.03 1.887 10.69 4.088c5.66 2.2 9.433 9.746 16.665 16.35 6.932 6.33 20.214 4.858 21.301 4.726 1.087.132 14.369 1.604 21.301-4.726 7.232-6.604 11.005-14.15 16.665-16.35 5.66-2.201 10.69-4.088 10.69-4.088s-3.145-13.205-1.887-24.524c1.258-11.32 2.516-22.953 2.516-22.953z" style="mix-blend-mode:lighten" opacity=".6"/>
        <path fill="#04AFC0" fill-rule="nonzero" d="M43.626 27.851c-4.245 1.415-6.132 2.83-6.132 2.83s9.905.707 16.508-4.245c6.602-4.952 5.895-9.197 4.48-9.432-1.415-.236-10.612 9.432-14.856 10.847M85.129 34.4c-8.246-2.437-15.669-2.774-18.758-2.795l-.184-.001h-.503c-3.088.022-10.512.36-18.757 2.795-10.847 3.205-21.695 8.118-21.695 8.118s4.48.214 8.49.428c4.008.213 13.913-2.137 17.686-2.564 3.052-.345 11.5-5.86 14.62-7.958 4.48 1.323 12.984 4.987 16.035 5.332 3.773.428 12.262 5.403 16.271 5.19 4.01-.214 8.49-.428 8.49-.428S95.976 37.604 85.129 34.4" opacity=".35"/>
        <path fill="#26CEB5" d="M57.154 32.236c-3.039.41-6.55 1.077-10.227 2.164-8.167 2.412-16.331 5.792-19.87 7.316 2.537-.08 7.975-1.932 11.773-2.467 2.243-.316 4.193.11 6.29-.472 6.914-1.92 9.076-3.577 12.034-6.54M94.17 39.563c2.055 1.029 4.443.81 6.56.373-4.132-1.67-9.867-3.843-15.601-5.537-8.246-2.436-15.669-2.773-18.758-2.794l-.184-.001h-.214c1.583.866 4.762 1.947 11.06 3.086 14.778 2.672 14.306 3.458 17.136 4.873"/>
        <path fill="#04AFC0" fill-rule="nonzero" d="M89.374 53.055c-8.997.203-17.686 4.099-23.346 3.596-5.66-.502-14.35-3.393-23.345-3.596-10.14-.229-18.158-.915-18.158-.915s3.411 2.246 5.66 2.973c3.537 1.143 6.366 3.66 12.262 3.43 5.895-.228 7.781 4.574 14.856 7.319 3.983 1.545 8.018 1.764 10.376 1.37 2.358-.394 3.799-1.992 7.782-3.537 7.074-2.744 9.903-5.152 12.498-5.66 2.595-.508 10.375-1.779 13.913-2.922 2.249-.727 5.659-2.973 5.659-2.973s-8.017.686-18.157.915" opacity=".35"/>
        <path fill="#26CEB5" d="M50.622 57.328c3.773 1.886 7.232 2.515 7.546 2.043.314-.471-7.075-3.3-2.987-3.458 1.449-.056 3.212-.112 4.761-.273-5.015-1.031-11.065-2.446-17.26-2.585-9.035-.204-16.38-.77-17.874-.892 1.532.788 3.796 1.648 7.106 2.335 8.332 1.73 14.935.943 18.708 2.83M91.182 55.284c-6.445.786-7.074.472-10.847 2.201-3.773 1.73-5.817 2.673-6.918 2.83-1.1.157-.629 1.886 2.83.472 3.458-1.415 9.904-4.088 9.59-2.988-.116.403-.903 1.1-1.603 1.784 1.485-.776 2.627-1.333 3.725-1.548 1.4-.274 4.309-.77 7.246-1.348 1.832-1.104 3.718-2.15 5.724-2.818 2.364-.788 4.315-1.22 5.603-1.65-1.454.112-4.412.322-8.262.512-1.662 1.069-4.035 2.18-7.088 2.553"/>
        <path fill="#04AFC0" fill-rule="nonzero" d="M83.006 74.542c-6.059 1.837-13.205 2.539-16.978 2.539-3.773 0-10.919-.702-16.979-2.539-7.782-2.358-13.441-10.14-13.441-10.14s3.537 8.018 11.555 12.97c6.504 4.017 15.328 3.85 18.865 3.85 3.537 0 12.361.167 18.865-3.85 8.018-4.952 11.555-12.97 11.555-12.97s-5.66 7.782-13.442 10.14" opacity=".35"/>
        <path fill="#26CEB5" d="M46.22 74.307c8.017 3.458 12.105 2.672 16.035 3.144 3.93.471 8.647.157 10.219-.158 1.572-.314 2.201-.471 4.716-.314 1.925.12 3.852-1.141 6.27-2.585-.15.05-.3.102-.454.148-6.059 1.837-13.205 2.539-16.978 2.539-3.773 0-10.919-.702-16.978-2.539-7.46-2.26-12.964-9.497-13.41-10.096 1.37 2.44 4.71 7.328 10.58 9.86"/>
        <path fill="#04AFC0" fill-rule="nonzero" d="M83.478 23.056c4.07 1.318 8.175 5.66 8.175 5.66s-5.298 1.021-11.63-3.59c-1.751-1.276-7.1-.425-7.912-1.536-2.123-2.9-.754-6.428.226-6.587 1.357-.22 7.072 4.736 11.141 6.053" opacity=".35"/>
        <path fill="#09D79D" d="M101.872 63.459c-2.123 1.415-6.132 6.603-7.31 9.197-1.18 2.594-5.66 5.424-10.848 9.432-2.03 1.57-14.856 2.353-17.686 2.353s-15.656-.784-17.686-2.353c-5.188-4.008-9.668-6.838-10.848-9.432-1.179-2.594-5.187-7.782-7.31-9.197-2.122-1.415-7.31-2.83-7.31-2.83s2.122-16.27 1.887-20.987c-.236-4.716-.708-16.507-.708-16.507s9.669-5.424 18.63-6.367c8.96-.943 14.384-2.83 17.921-4.245 1.493-.597 4.245-1.135 5.424-1.135 1.18 0 3.93.538 5.424 1.135 3.536 1.415 8.96 3.302 17.922 4.245 8.96.943 18.629 6.367 18.629 6.367s-.472 11.79-.708 16.507c-.235 4.716 1.887 20.987 1.887 20.987s-5.188 1.415-7.31 2.83m11.161-25.313c1.258-11.32 2.515-22.953 2.515-22.953s-11.004-3.773-19.808-5.66c-8.804-1.886-7.232-.628-13.206-2.515-5.974-1.886-14.03-4.963-16.506-4.963-2.476 0-10.533 3.077-16.506 4.963-5.975 1.887-4.402.63-13.206 2.516-8.804 1.886-19.808 5.66-19.808 5.66s1.257 11.632 2.515 22.952c1.258 11.319-1.887 24.524-1.887 24.524s5.03 1.887 10.69 4.088c5.66 2.2 9.433 9.747 16.665 16.35 7.231 6.603 17.646 5.187 21.537 5.187 3.891 0 14.306 1.416 21.537-5.187s11.005-14.15 16.664-16.35c5.66-2.201 10.69-4.088 10.69-4.088s-3.144-13.205-1.886-24.524"/>
        <path stroke="#D2DCD2" stroke-dasharray="1.415 1.886" stroke-width=".707" d="M22.324 14.881s1.448 20.224 1.258 27.826c-.158 6.289-.315 10.848-.786 12.892-.472 2.043-1.415 8.489-1.415 8.489M19.494 16.139s.314 7.703.629 11.79c.314 4.088.629 10.062.629 13.363 0 3.302-.315 14.307-.944 16.822-.628 2.515-.943 4.716-.943 4.716M108.475 16.296s-14.307-4.873-17.451-4.873c-3.145 0-6.446-.472-10.061-1.73-3.616-1.257-10.534-4.087-14.15-4.087h-1.57c-3.616 0-10.534 2.83-14.15 4.087-3.615 1.258-6.917 1.73-10.061 1.73-3.145 0-17.45 4.873-17.45 4.873"/>
        <path stroke="#D2DCD2" stroke-dasharray="1.415 1.886" stroke-width=".707" d="M107.373 19.755s-7.86-3.773-13.519-4.402c-5.66-.63-10.219-1.1-13.52-2.201-3.302-1.1-6.446-2.515-9.119-3.302-2.672-.786-5.03-.628-5.03-.628h-.314s-2.358-.158-5.03.628c-2.674.787-5.817 2.202-9.119 3.302-3.301 1.1-7.86 1.572-13.52 2.2-5.66.63-13.52 4.403-13.52 4.403M109.731 14.881s-1.447 20.224-1.256 27.826c.157 6.289.313 10.848.785 12.892.471 2.043 1.415 8.489 1.415 8.489M112.562 16.139s-.315 7.703-.629 11.79c-.315 4.088-.629 10.062-.629 13.363 0 3.302.314 14.307.943 16.822.63 2.515.944 4.716.944 4.716M108.475 63.223s-3.537 1.415-6.84 3.066c-2.997 1.499-4.951 5.423-6.602 7.781-1.651 2.358-5.188 5.424-7.31 7.311-2.122 1.886-5.424 4.244-8.726 4.716-3.3.472-12.498.708-12.498.708h-.942s-9.197-.236-12.499-.708c-3.301-.472-6.602-2.83-8.725-4.716-2.122-1.887-5.66-4.953-7.31-7.31-1.65-2.359-3.605-6.283-6.603-7.782-3.301-1.651-6.839-3.066-6.839-3.066"/>
    </g>
</svg>
