<svg xmlns="http://www.w3.org/2000/svg" width="45" height="90" viewBox="0 0 45 90">
    <g fill="none">
        <g>
            <g>
                <path fill="#DEDEDE" d="M0.168 0.168H8.927999999999999V21.576H0.168z" transform="translate(3.12) translate(16.08 4.32)"/>
                <path fill="#010101" d="M4.896.168H7.632V21.576H4.896zM1.344.168H2.904V21.576H1.344z" opacity=".1" transform="translate(3.12) translate(16.08 4.32)"/>
                <path fill="#010101" d="M8.928 7.8c-1.32-.312-2.808-.456-4.392-.456-1.584 0-3.072.12-4.392.456v13.776h8.76V7.8h.024z" opacity=".1" transform="translate(3.12) translate(16.08 4.32)"/>
            </g>
            <path fill="#EAEAEA" d="M20.616 36.216c-5.256 0-9.528-4.296-9.528-9.528v-6.432c0-5.256 4.296-6.648 9.528-6.648 5.256 0 9.528 1.392 9.528 6.648v6.432c.024 5.232-4.272 9.528-9.528 9.528z" transform="translate(3.12)"/>
            <g fill="#010101" opacity=".03">
                <path d="M14.856 1.128c-.12 1.272-.192 3.888-.192 6.912v1.752h.696V8.04c0-2.904-.072-5.448-.192-6.744-.096-.072-.216-.12-.312-.168zM10.656.216c-.096 1.344-.168 3.816-.168 6.648 0 1.032 0 2.016.024 2.928h.672c.024-.912.024-1.896.024-2.928 0-2.808-.072-5.28-.168-6.624-.12 0-.24-.024-.384-.024zM12.72.48c-.096 1.392-.168 3.72-.168 6.384 0 1.032 0 2.016.024 2.928h.672c.024-.912.024-1.896.024-2.928 0-2.592-.048-4.896-.144-6.288-.12-.024-.264-.072-.408-.096zM17.352 3.072c-.144-.216-.312-.408-.48-.576-.072 1.416-.144 3.576-.144 6.024v1.272h.72V8.52c0-2.136-.048-4.056-.096-5.448zM.168 3.384C.12 4.752.072 6.552.072 8.52v1.272h.72V8.52c0-2.328-.048-4.416-.12-5.832-.168.216-.336.456-.504.696zM4.392.624c-.096 1.392-.144 3.672-.144 6.24 0 1.032 0 2.016.024 2.928h.672c.024-.912.024-1.896.024-2.928 0-2.616-.072-4.944-.144-6.336-.144.024-.288.048-.432.096zM2.88 9.792V8.04c0-2.952-.072-5.52-.192-6.816-.12.048-.24.12-.36.168-.096 1.344-.168 3.816-.168 6.648v1.752h.72zM8.856.144h-.264c-.12 1.32-.192 3.84-.192 6.72 0 1.032 0 2.016.024 2.928h.672c.024-.912.024-1.896.024-2.928 0-2.88-.072-5.376-.192-6.72h-.072zM6.504.264c-.096 1.344-.168 3.792-.168 6.6 0 1.032 0 2.016.024 2.928h.672c.024-.912.024-1.896.024-2.928 0-2.832-.072-5.28-.168-6.624-.144 0-.264 0-.384.024z" transform="translate(3.12) translate(11.76 13.44)"/>
            </g>
            <path fill="#010101" d="M20.616 19.608c-3.816 0-7.248.192-9.528 1.224v5.832c0 5.256 4.296 9.528 9.528 9.528 5.256 0 9.528-4.296 9.528-9.528v-5.832c-2.28-1.032-5.712-1.224-9.528-1.224z" opacity=".05" transform="translate(3.12)"/>
            <path fill="#22B88D" d="M20.616 42.912c-6.888 0-12.504-4.248-12.504-9.432v-6.384c0-5.184 5.616-5.784 12.504-5.784s12.504.6 12.504 5.784v6.384c0 5.184-5.616 9.432-12.504 9.432z" transform="translate(3.12)"/>
            <path fill="#010101" d="M20.616 42.912c6.888 0 12.504-4.248 12.504-9.432v-5.016c-3.432-2.112-7.776-3.12-12.504-3.12s-9.072 1.008-12.504 3.12v5.016c0 5.184 5.64 9.432 12.504 9.432z" opacity=".1" transform="translate(3.12)"/>
            <path fill="#EAEAEA" d="M24.24.096H.024V3s8.256-.528 12.6 3.096c.312.264.576.576.816.912.192.264.432.528.672.744.768.672 1.776 1.104 2.88 1.104h7.248c2.4 0 4.392-1.968 4.392-4.392 0-2.4-1.968-4.368-4.392-4.368z" transform="translate(3.12)"/>
            <path fill="#010101" d="M24.24 7.08h-7.248c-1.104 0-2.112-.408-2.88-1.104-.24-.216-.48-.48-.672-.744-.24-.336-.504-.648-.816-.912C8.28.696.024 1.224.024 1.224V3s8.256-.528 12.6 3.096c.312.264.576.576.816.912.192.264.432.528.672.744.768.672 1.776 1.104 2.88 1.104h7.248c2.4 0 4.392-1.968 4.392-4.392 0-.312-.024-.6-.096-.888-.408 1.992-2.184 3.504-4.296 3.504z" opacity=".05" transform="translate(3.12)"/>
            <g>
                <path fill="#EAEAEA" d="M38.184 62.496H3.048c-1.656 0-3.024-1.368-3.024-3.024V16.464C.024 5.136 9.288.024 20.616.024s20.592 5.112 20.592 16.44v43.008c.024 1.656-1.344 3.024-3.024 3.024z" transform="translate(3.12) translate(0 27.12)"/>
                <path fill="#010101" d="M36.864 60.792H4.368c-1.536 0-2.808-1.296-2.808-2.856v-40.68c0-10.704 8.568-15.552 19.056-15.552 10.464 0 19.056 4.848 19.056 15.552v40.656c0 1.584-1.272 2.88-2.808 2.88z" opacity=".05" transform="translate(3.12) translate(0 27.12)"/>
                <path fill="#22B88D" d="M35.544 59.208H5.712c-1.416 0-2.568-1.224-2.568-2.712V18.024c0-10.128 7.872-14.712 17.496-14.712 9.624 0 17.496 4.584 17.496 14.712v38.472c-.024 1.488-1.176 2.712-2.592 2.712z" transform="translate(3.12) translate(0 27.12)"/>
                <path fill="#FFF" d="M3.552 14.256c-.264 1.152-.408 2.4-.408 3.768v38.472c0 1.488 1.152 2.712 2.568 2.712h29.832c1.416 0 2.568-1.224 2.568-2.712V18.024c0-1.344-.144-2.616-.408-3.768H3.552z" opacity=".2" transform="translate(3.12) translate(0 27.12)"/>
                <g transform="translate(3.12) translate(0 27.12) translate(0 18.48)">
                    <path fill="#EAEAEA" d="M0.024 3.216H41.208V30.072000000000003H0.024z"/>
                    <path fill="#010101" d="M0.024 30.048L0.024 33.6 1.584 30.048 1.584 3.216 0.024 0.216 0.024 3.216z" opacity=".05"/>
                    <circle cx="20.64" cy="16.632" r="10.944" fill="#09D79D"/>
                    <path fill="#EAEAEA" d="M27.792 14.28L22.968 14.28 22.968 9.456 18.288 9.456 18.288 14.28 13.464 14.28 13.464 18.984 18.288 18.984 18.288 23.784 22.968 23.784 22.968 18.984 27.792 18.984z"/>
                </g>
                <path fill="#010101" d="M30.6 1.608c2.664 2.64 4.104 6.384 3.744 11.304L32.28 42.288C31.824 48.72 26.304 54.6 19.8 55.536L.024 58.368v1.104c0 1.656 1.368 3.024 3.024 3.024h35.136c1.656 0 3.024-1.368 3.024-3.024V16.464C41.232 8.736 36.912 3.912 30.6 1.608z" opacity=".05" transform="translate(3.12) translate(0 27.12)"/>
                <path fill="#010101" d="M36.864 5.4c.96 2.232 1.392 4.848 1.224 7.92l-1.92 32.352c-.384 6.336-5.568 11.976-11.664 12.672L1.272 61.008c-.288.024-.552.024-.816 0 .528.888 1.488 1.488 2.592 1.488h35.136c1.656 0 3.024-1.368 3.024-3.024V16.464c.024-4.752-1.608-8.4-4.344-11.064z" opacity=".05" transform="translate(3.12) translate(0 27.12)"/>
            </g>
        </g>
        <g transform="translate(0 4.32)">
            <path fill="#22B88D" d="M6.264 8.28c0 1.704-1.392 3.096-3.096 3.096-1.704 0-3.096-1.392-3.096-3.096C.072 6.576 3.168.192 3.168.192S6.264 6.576 6.264 8.28z"/>
            <path fill="#010101" d="M3.288.504c.456 1.728 1.464 5.88 1.272 7.152-.24 1.608-1.584 2.736-3 2.52-.48-.072-.888-.288-1.248-.576.48 1.08 1.56 1.824 2.832 1.824 1.704 0 3.096-1.392 3.096-3.096.024-1.536-2.352-6.576-2.952-7.824z" opacity=".05"/>
            <ellipse cx="1.758" cy="7.172" fill="#EAEAEA" opacity=".2" rx="1.344" ry="1" transform="rotate(-77.783 1.758 7.172)"/>
        </g>
    </g>
</svg>
